<mxfile host="Electron" modified="2023-11-09T14:22:05.211Z" agent="Mozilla/5.0 (X11; Linux x86_64) AppleWebKit/537.36 (KHTML, like Gecko) draw.io/22.0.3 Chrome/114.0.5735.289 Electron/25.8.4 Safari/537.36" etag="RViv7XDIlkfe-U9qwdm-" version="22.0.3" type="device">
  <diagram name="Page-1" id="eLJ_I36iwp45Ac-6C83c">
    <mxGraphModel dx="1116" dy="1030" grid="1" gridSize="10" guides="1" tooltips="1" connect="1" arrows="1" fold="1" page="1" pageScale="1" pageWidth="827" pageHeight="1169" math="0" shadow="0">
      <root>
        <mxCell id="0" />
        <mxCell id="1" parent="0" />
        <mxCell id="jHpojtKqnsrThUNuC2kX-3" style="edgeStyle=orthogonalEdgeStyle;rounded=0;orthogonalLoop=1;jettySize=auto;html=1;dashed=1;" edge="1" parent="1" source="jHpojtKqnsrThUNuC2kX-1" target="jHpojtKqnsrThUNuC2kX-2">
          <mxGeometry relative="1" as="geometry" />
        </mxCell>
        <mxCell id="jHpojtKqnsrThUNuC2kX-4" value="O" style="edgeLabel;html=1;align=center;verticalAlign=middle;resizable=0;points=[];" vertex="1" connectable="0" parent="jHpojtKqnsrThUNuC2kX-3">
          <mxGeometry x="-0.0299" relative="1" as="geometry">
            <mxPoint as="offset" />
          </mxGeometry>
        </mxCell>
        <mxCell id="jHpojtKqnsrThUNuC2kX-1" value="??" style="rounded=0;whiteSpace=wrap;html=1;" vertex="1" parent="1">
          <mxGeometry x="260" y="500" width="120" height="60" as="geometry" />
        </mxCell>
        <mxCell id="jHpojtKqnsrThUNuC2kX-2" value="??" style="rounded=0;whiteSpace=wrap;html=1;" vertex="1" parent="1">
          <mxGeometry x="560" y="500" width="120" height="60" as="geometry" />
        </mxCell>
      </root>
    </mxGraphModel>
  </diagram>
</mxfile>
